%TF.GenerationSoftware,KiCad,Pcbnew,(6.0.9)*%
%TF.CreationDate,2023-01-12T16:27:42+01:00*%
%TF.ProjectId,MEGA board tester,4d454741-2062-46f6-9172-642074657374,rev?*%
%TF.SameCoordinates,PX7b9033cPY64bc73c*%
%TF.FileFunction,Drillmap*%
%TF.FilePolarity,Positive*%
%FSLAX45Y45*%
G04 Gerber Fmt 4.5, Leading zero omitted, Abs format (unit mm)*
G04 Created by KiCad (PCBNEW (6.0.9)) date 2023-01-12 16:27:42*
%MOMM*%
%LPD*%
G01*
G04 APERTURE LIST*
%ADD10C,0.200000*%
G04 APERTURE END LIST*
D10*
X487469Y-186526D02*
X487469Y13474D01*
X535088Y13474D01*
X563660Y3950D01*
X582707Y-15098D01*
X592231Y-34145D01*
X601755Y-72240D01*
X601755Y-100812D01*
X592231Y-138907D01*
X582707Y-157955D01*
X563660Y-177002D01*
X535088Y-186526D01*
X487469Y-186526D01*
X687469Y-186526D02*
X687469Y-53193D01*
X687469Y-91288D02*
X696993Y-72240D01*
X706517Y-62717D01*
X725564Y-53193D01*
X744612Y-53193D01*
X811278Y-186526D02*
X811278Y-53193D01*
X811278Y13474D02*
X801755Y3950D01*
X811278Y-5574D01*
X820802Y3950D01*
X811278Y13474D01*
X811278Y-5574D01*
X935088Y-186526D02*
X916040Y-177002D01*
X906517Y-157955D01*
X906517Y13474D01*
X1039850Y-186526D02*
X1020802Y-177002D01*
X1011278Y-157955D01*
X1011278Y13474D01*
X1268421Y-186526D02*
X1268421Y13474D01*
X1335088Y-129383D01*
X1401755Y13474D01*
X1401755Y-186526D01*
X1582707Y-186526D02*
X1582707Y-81764D01*
X1573183Y-62717D01*
X1554136Y-53193D01*
X1516040Y-53193D01*
X1496993Y-62717D01*
X1582707Y-177002D02*
X1563659Y-186526D01*
X1516040Y-186526D01*
X1496993Y-177002D01*
X1487469Y-157955D01*
X1487469Y-138907D01*
X1496993Y-119859D01*
X1516040Y-110336D01*
X1563659Y-110336D01*
X1582707Y-100812D01*
X1677945Y-53193D02*
X1677945Y-253193D01*
X1677945Y-62717D02*
X1696993Y-53193D01*
X1735088Y-53193D01*
X1754136Y-62717D01*
X1763659Y-72240D01*
X1773183Y-91288D01*
X1773183Y-148431D01*
X1763659Y-167479D01*
X1754136Y-177002D01*
X1735088Y-186526D01*
X1696993Y-186526D01*
X1677945Y-177002D01*
X1858898Y-167479D02*
X1868421Y-177002D01*
X1858898Y-186526D01*
X1849374Y-177002D01*
X1858898Y-167479D01*
X1858898Y-186526D01*
X1858898Y-62717D02*
X1868421Y-72240D01*
X1858898Y-81764D01*
X1849374Y-72240D01*
X1858898Y-62717D01*
X1858898Y-81764D01*
M02*
