%TF.GenerationSoftware,KiCad,Pcbnew,(6.0.9)*%
%TF.CreationDate,2023-01-12T16:46:16+01:00*%
%TF.ProjectId,MEGA board tester,4d454741-2062-46f6-9172-642074657374,rev?*%
%TF.SameCoordinates,PX7b9033cPY64bc73c*%
%TF.FileFunction,Soldermask,Bot*%
%TF.FilePolarity,Negative*%
%FSLAX46Y46*%
G04 Gerber Fmt 4.6, Leading zero omitted, Abs format (unit mm)*
G04 Created by KiCad (PCBNEW (6.0.9)) date 2023-01-12 16:46:16*
%MOMM*%
%LPD*%
G01*
G04 APERTURE LIST*
%ADD10C,0.350000*%
%TA.AperFunction,Profile*%
%ADD11C,0.100000*%
%TD*%
%TA.AperFunction,Profile*%
%ADD12C,0.381000*%
%TD*%
%ADD13C,3.197860*%
%ADD14C,1.524000*%
%ADD15R,1.700000X1.700000*%
%ADD16O,1.700000X1.700000*%
%ADD17C,1.650000*%
%ADD18C,1.400000*%
G04 APERTURE END LIST*
D10*
X53057500Y42707643D02*
X52962261Y42802881D01*
X52771785Y42898120D01*
X52390833Y42707643D01*
X52200357Y42802881D01*
X52105119Y42898120D01*
X51438452Y42517167D02*
X50486071Y42517167D01*
X51628928Y41945739D02*
X50962261Y43945739D01*
X50295595Y41945739D01*
X49628928Y43279072D02*
X49628928Y41945739D01*
X49628928Y43088596D02*
X49533690Y43183834D01*
X49343214Y43279072D01*
X49057500Y43279072D01*
X48867023Y43183834D01*
X48771785Y42993358D01*
X48771785Y41945739D01*
X46962261Y41945739D02*
X46962261Y43945739D01*
X46962261Y42040977D02*
X47152738Y41945739D01*
X47533690Y41945739D01*
X47724166Y42040977D01*
X47819404Y42136215D01*
X47914642Y42326691D01*
X47914642Y42898120D01*
X47819404Y43088596D01*
X47724166Y43183834D01*
X47533690Y43279072D01*
X47152738Y43279072D01*
X46962261Y43183834D01*
X44486071Y43279072D02*
X44486071Y41945739D01*
X44486071Y43088596D02*
X44390833Y43183834D01*
X44200357Y43279072D01*
X43914642Y43279072D01*
X43724166Y43183834D01*
X43628928Y42993358D01*
X43628928Y41945739D01*
X42390833Y41945739D02*
X42581309Y42040977D01*
X42676547Y42136215D01*
X42771785Y42326691D01*
X42771785Y42898120D01*
X42676547Y43088596D01*
X42581309Y43183834D01*
X42390833Y43279072D01*
X42105119Y43279072D01*
X41914642Y43183834D01*
X41819404Y43088596D01*
X41724166Y42898120D01*
X41724166Y42326691D01*
X41819404Y42136215D01*
X41914642Y42040977D01*
X42105119Y41945739D01*
X42390833Y41945739D01*
X41057500Y43279072D02*
X40676547Y41945739D01*
X40295595Y42898120D01*
X39914642Y41945739D01*
X39533690Y43279072D01*
X37247976Y41945739D02*
X37247976Y43945739D01*
X34867023Y42040977D02*
X34676547Y41945739D01*
X34295595Y41945739D01*
X34105119Y42040977D01*
X34009880Y42231453D01*
X34009880Y42326691D01*
X34105119Y42517167D01*
X34295595Y42612405D01*
X34581309Y42612405D01*
X34771785Y42707643D01*
X34867023Y42898120D01*
X34867023Y42993358D01*
X34771785Y43183834D01*
X34581309Y43279072D01*
X34295595Y43279072D01*
X34105119Y43183834D01*
X32390833Y42040977D02*
X32581309Y41945739D01*
X32962261Y41945739D01*
X33152738Y42040977D01*
X33247976Y42231453D01*
X33247976Y42993358D01*
X33152738Y43183834D01*
X32962261Y43279072D01*
X32581309Y43279072D01*
X32390833Y43183834D01*
X32295595Y42993358D01*
X32295595Y42802881D01*
X33247976Y42612405D01*
X30676547Y42040977D02*
X30867023Y41945739D01*
X31247976Y41945739D01*
X31438452Y42040977D01*
X31533690Y42231453D01*
X31533690Y42993358D01*
X31438452Y43183834D01*
X31247976Y43279072D01*
X30867023Y43279072D01*
X30676547Y43183834D01*
X30581309Y42993358D01*
X30581309Y42802881D01*
X31533690Y42612405D01*
X28390833Y43279072D02*
X28009880Y41945739D01*
X27628928Y42898120D01*
X27247976Y41945739D01*
X26867023Y43279072D01*
X26105119Y41945739D02*
X26105119Y43279072D01*
X26105119Y43945739D02*
X26200357Y43850500D01*
X26105119Y43755262D01*
X26009880Y43850500D01*
X26105119Y43945739D01*
X26105119Y43755262D01*
X25438452Y43279072D02*
X24676547Y43279072D01*
X25152738Y43945739D02*
X25152738Y42231453D01*
X25057500Y42040977D01*
X24867023Y41945739D01*
X24676547Y41945739D01*
X24009880Y41945739D02*
X24009880Y43945739D01*
X23152738Y41945739D02*
X23152738Y42993358D01*
X23247976Y43183834D01*
X23438452Y43279072D01*
X23724166Y43279072D01*
X23914642Y43183834D01*
X24009880Y43088596D01*
X19914642Y42040977D02*
X20105119Y41945739D01*
X20486071Y41945739D01*
X20676547Y42040977D01*
X20771785Y42231453D01*
X20771785Y42993358D01*
X20676547Y43183834D01*
X20486071Y43279072D01*
X20105119Y43279072D01*
X19914642Y43183834D01*
X19819404Y42993358D01*
X19819404Y42802881D01*
X20771785Y42612405D01*
X19152738Y43279072D02*
X18676547Y41945739D01*
X18200357Y43279072D02*
X18676547Y41945739D01*
X18867023Y41469548D01*
X18962261Y41374310D01*
X19152738Y41279072D01*
X16676547Y42040977D02*
X16867023Y41945739D01*
X17247976Y41945739D01*
X17438452Y42040977D01*
X17533690Y42231453D01*
X17533690Y42993358D01*
X17438452Y43183834D01*
X17247976Y43279072D01*
X16867023Y43279072D01*
X16676547Y43183834D01*
X16581309Y42993358D01*
X16581309Y42802881D01*
X17533690Y42612405D01*
X14295595Y42040977D02*
X14105119Y41945739D01*
X13724166Y41945739D01*
X13533690Y42040977D01*
X13438452Y42231453D01*
X13438452Y42326691D01*
X13533690Y42517167D01*
X13724166Y42612405D01*
X14009880Y42612405D01*
X14200357Y42707643D01*
X14295595Y42898120D01*
X14295595Y42993358D01*
X14200357Y43183834D01*
X14009880Y43279072D01*
X13724166Y43279072D01*
X13533690Y43183834D01*
X11819404Y42040977D02*
X12009880Y41945739D01*
X12390833Y41945739D01*
X12581309Y42040977D01*
X12676547Y42231453D01*
X12676547Y42993358D01*
X12581309Y43183834D01*
X12390833Y43279072D01*
X12009880Y43279072D01*
X11819404Y43183834D01*
X11724166Y42993358D01*
X11724166Y42802881D01*
X12676547Y42612405D01*
X10867023Y41945739D02*
X10867023Y43279072D01*
X10867023Y42898120D02*
X10771785Y43088596D01*
X10676547Y43183834D01*
X10486071Y43279072D01*
X10295595Y43279072D01*
X8867023Y42040977D02*
X9057500Y41945739D01*
X9438452Y41945739D01*
X9628928Y42040977D01*
X9724166Y42231453D01*
X9724166Y42993358D01*
X9628928Y43183834D01*
X9438452Y43279072D01*
X9057500Y43279072D01*
X8867023Y43183834D01*
X8771785Y42993358D01*
X8771785Y42802881D01*
X9724166Y42612405D01*
X7914642Y43279072D02*
X7914642Y41945739D01*
X7914642Y43088596D02*
X7819404Y43183834D01*
X7628928Y43279072D01*
X7343214Y43279072D01*
X7152738Y43183834D01*
X7057500Y42993358D01*
X7057500Y41945739D01*
X5343214Y42040977D02*
X5533690Y41945739D01*
X5914642Y41945739D01*
X6105119Y42040977D01*
X6200357Y42231453D01*
X6200357Y42993358D01*
X6105119Y43183834D01*
X5914642Y43279072D01*
X5533690Y43279072D01*
X5343214Y43183834D01*
X5247976Y42993358D01*
X5247976Y42802881D01*
X6200357Y42612405D01*
X52962261Y39487643D02*
X52867023Y39582881D01*
X52676547Y39678120D01*
X52295595Y39487643D01*
X52105119Y39582881D01*
X52009880Y39678120D01*
X51533690Y40725739D02*
X50390833Y40725739D01*
X50962261Y38725739D02*
X50962261Y40725739D01*
X49724166Y38725739D02*
X49724166Y40725739D01*
X48867023Y38725739D02*
X48867023Y39773358D01*
X48962261Y39963834D01*
X49152738Y40059072D01*
X49438452Y40059072D01*
X49628928Y39963834D01*
X49724166Y39868596D01*
X47152738Y38820977D02*
X47343214Y38725739D01*
X47724166Y38725739D01*
X47914642Y38820977D01*
X48009880Y39011453D01*
X48009880Y39773358D01*
X47914642Y39963834D01*
X47724166Y40059072D01*
X47343214Y40059072D01*
X47152738Y39963834D01*
X47057500Y39773358D01*
X47057500Y39582881D01*
X48009880Y39392405D01*
X44867023Y40059072D02*
X44390833Y38725739D01*
X43914642Y40059072D01*
X42390833Y38820977D02*
X42581309Y38725739D01*
X42962261Y38725739D01*
X43152738Y38820977D01*
X43247976Y39011453D01*
X43247976Y39773358D01*
X43152738Y39963834D01*
X42962261Y40059072D01*
X42581309Y40059072D01*
X42390833Y39963834D01*
X42295595Y39773358D01*
X42295595Y39582881D01*
X43247976Y39392405D01*
X41438452Y38725739D02*
X41438452Y40059072D01*
X41438452Y39678120D02*
X41343214Y39868596D01*
X41247976Y39963834D01*
X41057500Y40059072D01*
X40867023Y40059072D01*
X40390833Y40059072D02*
X39914642Y38725739D01*
X39438452Y40059072D02*
X39914642Y38725739D01*
X40105119Y38249548D01*
X40200357Y38154310D01*
X40390833Y38059072D01*
X37152738Y40059072D02*
X37152738Y38059072D01*
X37152738Y39963834D02*
X36962261Y40059072D01*
X36581309Y40059072D01*
X36390833Y39963834D01*
X36295595Y39868596D01*
X36200357Y39678120D01*
X36200357Y39106691D01*
X36295595Y38916215D01*
X36390833Y38820977D01*
X36581309Y38725739D01*
X36962261Y38725739D01*
X37152738Y38820977D01*
X34486071Y40059072D02*
X34486071Y38725739D01*
X35343214Y40059072D02*
X35343214Y39011453D01*
X35247976Y38820977D01*
X35057500Y38725739D01*
X34771785Y38725739D01*
X34581309Y38820977D01*
X34486071Y38916215D01*
X33247976Y38725739D02*
X33438452Y38820977D01*
X33533690Y39011453D01*
X33533690Y40725739D01*
X32581309Y38820977D02*
X32390833Y38725739D01*
X32009880Y38725739D01*
X31819404Y38820977D01*
X31724166Y39011453D01*
X31724166Y39106691D01*
X31819404Y39297167D01*
X32009880Y39392405D01*
X32295595Y39392405D01*
X32486071Y39487643D01*
X32581309Y39678120D01*
X32581309Y39773358D01*
X32486071Y39963834D01*
X32295595Y40059072D01*
X32009880Y40059072D01*
X31819404Y39963834D01*
X30105119Y38820977D02*
X30295595Y38725739D01*
X30676547Y38725739D01*
X30867023Y38820977D01*
X30962261Y39011453D01*
X30962261Y39773358D01*
X30867023Y39963834D01*
X30676547Y40059072D01*
X30295595Y40059072D01*
X30105119Y39963834D01*
X30009880Y39773358D01*
X30009880Y39582881D01*
X30962261Y39392405D01*
X27343214Y38725739D02*
X27533690Y38820977D01*
X27628928Y38916215D01*
X27724166Y39106691D01*
X27724166Y39678120D01*
X27628928Y39868596D01*
X27533690Y39963834D01*
X27343214Y40059072D01*
X27057500Y40059072D01*
X26867023Y39963834D01*
X26771785Y39868596D01*
X26676547Y39678120D01*
X26676547Y39106691D01*
X26771785Y38916215D01*
X26867023Y38820977D01*
X27057500Y38725739D01*
X27343214Y38725739D01*
X26105119Y40059072D02*
X25343214Y40059072D01*
X25819404Y38725739D02*
X25819404Y40440024D01*
X25724166Y40630500D01*
X25533690Y40725739D01*
X25343214Y40725739D01*
X23438452Y40059072D02*
X22676547Y40059072D01*
X23152738Y40725739D02*
X23152738Y39011453D01*
X23057500Y38820977D01*
X22867023Y38725739D01*
X22676547Y38725739D01*
X22009880Y38725739D02*
X22009880Y40725739D01*
X21152738Y38725739D02*
X21152738Y39773358D01*
X21247976Y39963834D01*
X21438452Y40059072D01*
X21724166Y40059072D01*
X21914642Y39963834D01*
X22009880Y39868596D01*
X19438452Y38820977D02*
X19628928Y38725739D01*
X20009880Y38725739D01*
X20200357Y38820977D01*
X20295595Y39011453D01*
X20295595Y39773358D01*
X20200357Y39963834D01*
X20009880Y40059072D01*
X19628928Y40059072D01*
X19438452Y39963834D01*
X19343214Y39773358D01*
X19343214Y39582881D01*
X20295595Y39392405D01*
X16962261Y38725739D02*
X16962261Y40059072D01*
X16962261Y39868596D02*
X16867023Y39963834D01*
X16676547Y40059072D01*
X16390833Y40059072D01*
X16200357Y39963834D01*
X16105119Y39773358D01*
X16105119Y38725739D01*
X16105119Y39773358D02*
X16009880Y39963834D01*
X15819404Y40059072D01*
X15533690Y40059072D01*
X15343214Y39963834D01*
X15247976Y39773358D01*
X15247976Y38725739D01*
X13438452Y38725739D02*
X13438452Y39773358D01*
X13533690Y39963834D01*
X13724166Y40059072D01*
X14105119Y40059072D01*
X14295595Y39963834D01*
X13438452Y38820977D02*
X13628928Y38725739D01*
X14105119Y38725739D01*
X14295595Y38820977D01*
X14390833Y39011453D01*
X14390833Y39201929D01*
X14295595Y39392405D01*
X14105119Y39487643D01*
X13628928Y39487643D01*
X13438452Y39582881D01*
X11628928Y38820977D02*
X11819404Y38725739D01*
X12200357Y38725739D01*
X12390833Y38820977D01*
X12486071Y38916215D01*
X12581309Y39106691D01*
X12581309Y39678120D01*
X12486071Y39868596D01*
X12390833Y39963834D01*
X12200357Y40059072D01*
X11819404Y40059072D01*
X11628928Y39963834D01*
X10771785Y38725739D02*
X10771785Y40725739D01*
X9914642Y38725739D02*
X9914642Y39773358D01*
X10009880Y39963834D01*
X10200357Y40059072D01*
X10486071Y40059072D01*
X10676547Y39963834D01*
X10771785Y39868596D01*
X8962261Y38725739D02*
X8962261Y40059072D01*
X8962261Y40725739D02*
X9057500Y40630500D01*
X8962261Y40535262D01*
X8867023Y40630500D01*
X8962261Y40725739D01*
X8962261Y40535262D01*
X8009880Y40059072D02*
X8009880Y38725739D01*
X8009880Y39868596D02*
X7914642Y39963834D01*
X7724166Y40059072D01*
X7438452Y40059072D01*
X7247976Y39963834D01*
X7152738Y39773358D01*
X7152738Y38725739D01*
X5438452Y38820977D02*
X5628928Y38725739D01*
X6009880Y38725739D01*
X6200357Y38820977D01*
X6295595Y39011453D01*
X6295595Y39773358D01*
X6200357Y39963834D01*
X6009880Y40059072D01*
X5628928Y40059072D01*
X5438452Y39963834D01*
X5343214Y39773358D01*
X5343214Y39582881D01*
X6295595Y39392405D01*
D11*
X127396666Y30480000D02*
G75*
G03*
X127396666Y30480000I-1666666J0D01*
G01*
X123230000Y30480000D02*
X128230000Y30480000D01*
X125730000Y32980000D02*
X125730000Y27980000D01*
X127396666Y6350000D02*
G75*
G03*
X127396666Y6350000I-1666666J0D01*
G01*
X123230000Y6350000D02*
X128230000Y6350000D01*
X125730000Y8850000D02*
X125730000Y3850000D01*
X1666666Y55880000D02*
G75*
G03*
X1666666Y55880000I-1666666J0D01*
G01*
X-2500000Y55880000D02*
X2500000Y55880000D01*
X0Y58380000D02*
X0Y53380000D01*
X1666666Y0D02*
G75*
G03*
X1666666Y0I-1666666J0D01*
G01*
X-2500000Y0D02*
X2500000Y0D01*
X0Y2500000D02*
X0Y-2500000D01*
D12*
%TO.C,J1*%
X121869000Y53500000D02*
X121869000Y2700000D01*
X121869000Y2700000D02*
X120599000Y1430000D01*
X3759000Y54770000D02*
X120599000Y54770000D01*
X2489000Y2700000D02*
X2489000Y53500000D01*
X3759000Y1430000D02*
X120599000Y1430000D01*
X120599000Y54770000D02*
X121869000Y53500000D01*
X2489000Y2700000D02*
G75*
G03*
X3759000Y1430000I1269999J-1D01*
G01*
X3759000Y54770000D02*
G75*
G03*
X2489000Y53500000I-1J-1269999D01*
G01*
%TD*%
D13*
%TO.C,J1*%
X92659000Y52230000D03*
X99009000Y3970000D03*
X17729000Y52230000D03*
X68529000Y36990000D03*
X16459000Y3970000D03*
D14*
X30429000Y3970000D03*
X32969000Y3970000D03*
X35509000Y3970000D03*
X38049000Y3970000D03*
X40589000Y3970000D03*
X43129000Y3970000D03*
X45669000Y3970000D03*
X48209000Y3970000D03*
X53289000Y3970000D03*
X55829000Y3970000D03*
X58369000Y3970000D03*
X60909000Y3970000D03*
X63449000Y3970000D03*
X65989000Y3970000D03*
X68529000Y3970000D03*
X71069000Y3970000D03*
X76149000Y3970000D03*
X78689000Y3970000D03*
X81229000Y3970000D03*
X83769000Y3970000D03*
X86309000Y3970000D03*
X88849000Y3970000D03*
X91389000Y3970000D03*
X93929000Y3970000D03*
X96469000Y9050000D03*
X96469000Y11590000D03*
X96469000Y14130000D03*
X96469000Y16670000D03*
X96469000Y19210000D03*
X96469000Y21750000D03*
X96469000Y24290000D03*
X96469000Y26830000D03*
X96469000Y29370000D03*
X96469000Y31910000D03*
X96469000Y34450000D03*
X96469000Y36990000D03*
X96469000Y39530000D03*
X96469000Y42070000D03*
X96469000Y44610000D03*
X96469000Y47150000D03*
X96469000Y49690000D03*
X96469000Y52230000D03*
X99009000Y9050000D03*
X99009000Y11590000D03*
X99009000Y14130000D03*
X99009000Y16670000D03*
X99009000Y19210000D03*
X99009000Y21750000D03*
X99009000Y24290000D03*
X99009000Y26830000D03*
X99009000Y29370000D03*
X99009000Y31910000D03*
X99009000Y34450000D03*
X99009000Y36990000D03*
X99009000Y39530000D03*
X99009000Y42070000D03*
X99009000Y44610000D03*
X99009000Y47150000D03*
X99009000Y49690000D03*
X99009000Y52230000D03*
X88849000Y52230000D03*
X86309000Y52230000D03*
X83769000Y52230000D03*
X81229000Y52230000D03*
X78689000Y52230000D03*
X76149000Y52230000D03*
X73609000Y52230000D03*
X71069000Y52230000D03*
X65989000Y52230000D03*
X63449000Y52230000D03*
X60909000Y52230000D03*
X58369000Y52230000D03*
X55829000Y52230000D03*
X53289000Y52230000D03*
X50749000Y52230000D03*
X48209000Y52230000D03*
X44145000Y52230000D03*
X41605000Y52230000D03*
X39065000Y52230000D03*
X36525000Y52230000D03*
X33985000Y52230000D03*
X31445000Y52230000D03*
X28905000Y52230000D03*
X26365000Y52230000D03*
X23825000Y52230000D03*
X21285000Y52230000D03*
D15*
X66098000Y31888000D03*
D16*
X68638000Y31888000D03*
X66098000Y29348000D03*
X68638000Y29348000D03*
X66098000Y26808000D03*
X68638000Y26808000D03*
%TD*%
D17*
%TO.C,REF\u002A\u002A*%
X18867518Y25768607D03*
X30777518Y19188607D03*
X30837518Y25768607D03*
X18707518Y19268607D03*
D18*
X17677518Y31058607D03*
X31677518Y31088607D03*
X17677518Y14088607D03*
X13717518Y22578607D03*
X31677518Y14108607D03*
X35637518Y22598607D03*
%TD*%
M02*
