%TF.GenerationSoftware,KiCad,Pcbnew,(6.0.9)*%
%TF.CreationDate,2023-01-12T16:46:16+01:00*%
%TF.ProjectId,MEGA board tester,4d454741-2062-46f6-9172-642074657374,rev?*%
%TF.SameCoordinates,PX7b9033cPY64bc73c*%
%TF.FileFunction,Paste,Top*%
%TF.FilePolarity,Positive*%
%FSLAX46Y46*%
G04 Gerber Fmt 4.6, Leading zero omitted, Abs format (unit mm)*
G04 Created by KiCad (PCBNEW (6.0.9)) date 2023-01-12 16:46:16*
%MOMM*%
%LPD*%
G01*
G04 APERTURE LIST*
G04 Aperture macros list*
%AMRoundRect*
0 Rectangle with rounded corners*
0 $1 Rounding radius*
0 $2 $3 $4 $5 $6 $7 $8 $9 X,Y pos of 4 corners*
0 Add a 4 corners polygon primitive as box body*
4,1,4,$2,$3,$4,$5,$6,$7,$8,$9,$2,$3,0*
0 Add four circle primitives for the rounded corners*
1,1,$1+$1,$2,$3*
1,1,$1+$1,$4,$5*
1,1,$1+$1,$6,$7*
1,1,$1+$1,$8,$9*
0 Add four rect primitives between the rounded corners*
20,1,$1+$1,$2,$3,$4,$5,0*
20,1,$1+$1,$4,$5,$6,$7,0*
20,1,$1+$1,$6,$7,$8,$9,0*
20,1,$1+$1,$8,$9,$2,$3,0*%
G04 Aperture macros list end*
%TA.AperFunction,Profile*%
%ADD10C,0.100000*%
%TD*%
%TA.AperFunction,Profile*%
%ADD11C,0.381000*%
%TD*%
%ADD12RoundRect,0.250000X-0.450000X0.325000X-0.450000X-0.325000X0.450000X-0.325000X0.450000X0.325000X0*%
%ADD13RoundRect,0.250000X0.325000X0.450000X-0.325000X0.450000X-0.325000X-0.450000X0.325000X-0.450000X0*%
%ADD14RoundRect,0.250000X0.450000X-0.325000X0.450000X0.325000X-0.450000X0.325000X-0.450000X-0.325000X0*%
%ADD15R,0.900000X0.900000*%
%ADD16RoundRect,0.250000X-0.325000X-0.450000X0.325000X-0.450000X0.325000X0.450000X-0.325000X0.450000X0*%
%ADD17R,1.400000X2.300000*%
G04 APERTURE END LIST*
D10*
X127396666Y30480000D02*
G75*
G03*
X127396666Y30480000I-1666666J0D01*
G01*
X123230000Y30480000D02*
X128230000Y30480000D01*
X125730000Y32980000D02*
X125730000Y27980000D01*
X127396666Y6350000D02*
G75*
G03*
X127396666Y6350000I-1666666J0D01*
G01*
X123230000Y6350000D02*
X128230000Y6350000D01*
X125730000Y8850000D02*
X125730000Y3850000D01*
X1666666Y55880000D02*
G75*
G03*
X1666666Y55880000I-1666666J0D01*
G01*
X-2500000Y55880000D02*
X2500000Y55880000D01*
X0Y58380000D02*
X0Y53380000D01*
X1666666Y0D02*
G75*
G03*
X1666666Y0I-1666666J0D01*
G01*
X-2500000Y0D02*
X2500000Y0D01*
X0Y2500000D02*
X0Y-2500000D01*
D11*
%TO.C,J1*%
X121869000Y53500000D02*
X121869000Y2700000D01*
X121869000Y2700000D02*
X120599000Y1430000D01*
X3759000Y54770000D02*
X120599000Y54770000D01*
X2489000Y2700000D02*
X2489000Y53500000D01*
X3759000Y1430000D02*
X120599000Y1430000D01*
X120599000Y54770000D02*
X121869000Y53500000D01*
X2489000Y2700000D02*
G75*
G03*
X3759000Y1430000I1269999J-1D01*
G01*
X3759000Y54770000D02*
G75*
G03*
X2489000Y53500000I-1J-1269999D01*
G01*
%TO.C,REF\u002A\u002A*%
G36*
X16993581Y14243126D02*
G01*
X17013211Y14311023D01*
X17041045Y14378621D01*
X17074354Y14451597D01*
X15499610Y16026241D01*
X15499610Y20460997D01*
X14756626Y21204033D01*
X14013643Y21947069D01*
X13924469Y21916618D01*
X13880910Y21902640D01*
X13843934Y21893627D01*
X13806322Y21888496D01*
X13760853Y21886165D01*
X13717513Y21885604D01*
X13657567Y21886259D01*
X13610986Y21889442D01*
X13570724Y21895996D01*
X13529731Y21906763D01*
X13522917Y21908845D01*
X13426753Y21944346D01*
X13344012Y21988339D01*
X13268155Y22044726D01*
X13219357Y22089956D01*
X13177478Y22133320D01*
X13146412Y22170700D01*
X13121114Y22209081D01*
X13096542Y22255447D01*
X13089760Y22269442D01*
X13057992Y22340655D01*
X13036503Y22402545D01*
X13023576Y22462397D01*
X13017499Y22527494D01*
X13016701Y22566473D01*
X13473738Y22566473D01*
X13485619Y22502660D01*
X13493051Y22483831D01*
X13520898Y22433758D01*
X13555081Y22397552D01*
X13602100Y22368596D01*
X13609973Y22364794D01*
X13675930Y22344293D01*
X13743390Y22343072D01*
X13808361Y22361191D01*
X13809691Y22361789D01*
X13859764Y22389635D01*
X13895970Y22423819D01*
X13924926Y22470837D01*
X13928728Y22478710D01*
X13948306Y22542934D01*
X13949816Y22610002D01*
X13933981Y22675065D01*
X13901523Y22733273D01*
X13888430Y22748917D01*
X13851054Y22778475D01*
X13801616Y22802641D01*
X13748447Y22817975D01*
X13712392Y22821615D01*
X13661713Y22814809D01*
X13608744Y22796684D01*
X13561813Y22770680D01*
X13536355Y22748917D01*
X13500009Y22695131D01*
X13478836Y22632473D01*
X13473738Y22566473D01*
X13016701Y22566473D01*
X13016401Y22581130D01*
X13018643Y22654415D01*
X13026511Y22717261D01*
X13041720Y22776953D01*
X13065985Y22840774D01*
X13089760Y22892818D01*
X13114900Y22942225D01*
X13139571Y22982077D01*
X13168755Y23019284D01*
X13207434Y23060754D01*
X13220048Y23073474D01*
X13263833Y23115543D01*
X13301504Y23146782D01*
X13339971Y23172173D01*
X13386141Y23196699D01*
X13400705Y23203762D01*
X13471917Y23235530D01*
X13533808Y23257019D01*
X13593659Y23269946D01*
X13658757Y23276023D01*
X13712392Y23277121D01*
X13806406Y23272582D01*
X13888538Y23258150D01*
X13965464Y23232605D01*
X13973030Y23229433D01*
X14018587Y23209998D01*
X14759098Y23950457D01*
X15499610Y24690915D01*
X15499610Y29115435D01*
X16288585Y29904459D01*
X17077559Y30693483D01*
X17042647Y30769927D01*
X17012452Y30843431D01*
X16993188Y30910825D01*
X16982999Y30980746D01*
X16980030Y31061452D01*
X17435786Y31061452D01*
X17443548Y31005056D01*
X17464407Y30947964D01*
X17494722Y30899692D01*
X17499984Y30893665D01*
X17546664Y30856997D01*
X17604439Y30833160D01*
X17667632Y30823224D01*
X17730568Y30828260D01*
X17773320Y30842111D01*
X17823393Y30869958D01*
X17859599Y30904141D01*
X17888555Y30951160D01*
X17892357Y30959033D01*
X17911935Y31023256D01*
X17913445Y31090324D01*
X17897610Y31155387D01*
X17865152Y31213595D01*
X17852059Y31229239D01*
X17814683Y31258797D01*
X17765245Y31282963D01*
X17712076Y31298297D01*
X17676021Y31301938D01*
X17625342Y31295132D01*
X17572373Y31277006D01*
X17525443Y31251002D01*
X17499984Y31229239D01*
X17468539Y31183165D01*
X17445991Y31126809D01*
X17435981Y31069687D01*
X17435786Y31061452D01*
X16980030Y31061452D01*
X16982272Y31134737D01*
X16990140Y31197584D01*
X17005349Y31257275D01*
X17029614Y31321097D01*
X17053389Y31373140D01*
X17078529Y31422547D01*
X17103200Y31462400D01*
X17132384Y31499607D01*
X17171063Y31541077D01*
X17183677Y31553797D01*
X17227462Y31595865D01*
X17265133Y31627104D01*
X17303600Y31652496D01*
X17349770Y31677022D01*
X17364334Y31684085D01*
X17435546Y31715852D01*
X17497437Y31737342D01*
X17557288Y31750268D01*
X17622386Y31756346D01*
X17676021Y31757444D01*
X17749307Y31755202D01*
X17812153Y31747334D01*
X17871845Y31732124D01*
X17935666Y31707860D01*
X17987709Y31684085D01*
X18037116Y31658944D01*
X18076969Y31634273D01*
X18114176Y31605090D01*
X18155646Y31566411D01*
X18168366Y31553797D01*
X18210435Y31510012D01*
X18241673Y31472340D01*
X18267065Y31433874D01*
X18291591Y31387704D01*
X18298654Y31373140D01*
X18330421Y31301927D01*
X18351911Y31240037D01*
X18364837Y31180185D01*
X18370915Y31115088D01*
X18372013Y31061452D01*
X18369771Y30988167D01*
X18361903Y30925321D01*
X18346693Y30865629D01*
X18322429Y30801808D01*
X18298654Y30749764D01*
X18273457Y30700231D01*
X18248825Y30660471D01*
X18219715Y30623500D01*
X18181084Y30582333D01*
X18169057Y30570278D01*
X18077949Y30491729D01*
X17981638Y30432686D01*
X17878547Y30392493D01*
X17767099Y30370497D01*
X17676021Y30365546D01*
X17575091Y30371273D01*
X17483563Y30389718D01*
X17393449Y30422770D01*
X17352983Y30442026D01*
X17295513Y30471037D01*
X16556311Y29731783D01*
X15817110Y28992529D01*
X15817110Y24567747D01*
X15039496Y23790383D01*
X14261881Y23013019D01*
X14286536Y22980695D01*
X14308792Y22945782D01*
X14333646Y22897824D01*
X14358112Y22843484D01*
X14379200Y22789424D01*
X14393924Y22742306D01*
X14394531Y22739880D01*
X14402529Y22691212D01*
X14406939Y22629766D01*
X14407762Y22562930D01*
X14404997Y22498095D01*
X14398645Y22442648D01*
X14394531Y22422380D01*
X14379609Y22373850D01*
X14357901Y22318204D01*
X14332497Y22262275D01*
X14306486Y22212896D01*
X14284371Y22178725D01*
X14257550Y22143562D01*
X15817110Y20583902D01*
X15817110Y16149141D01*
X16552352Y15413953D01*
X17287593Y14678764D01*
X17374267Y14718884D01*
X17446983Y14749803D01*
X17511428Y14770139D01*
X17575646Y14781693D01*
X17647679Y14786269D01*
X17676021Y14786557D01*
X17749307Y14784315D01*
X17812153Y14776447D01*
X17871845Y14761237D01*
X17935666Y14736973D01*
X17987709Y14713198D01*
X18037116Y14688057D01*
X18076969Y14663386D01*
X18114176Y14634202D01*
X18155646Y14595524D01*
X18168366Y14582910D01*
X18210435Y14539125D01*
X18241673Y14501453D01*
X18267065Y14462987D01*
X18291591Y14416817D01*
X18298654Y14402253D01*
X18330421Y14331040D01*
X18351911Y14269150D01*
X18364837Y14209298D01*
X18370915Y14144201D01*
X18372013Y14090565D01*
X18369771Y14017280D01*
X18361903Y13954434D01*
X18346693Y13894742D01*
X18322429Y13830921D01*
X18298654Y13778877D01*
X18273457Y13729344D01*
X18248825Y13689584D01*
X18219715Y13652613D01*
X18181084Y13611446D01*
X18169057Y13599391D01*
X18090034Y13529711D01*
X18007827Y13476348D01*
X17915943Y13435405D01*
X17870680Y13420290D01*
X17812485Y13406784D01*
X17744088Y13397542D01*
X17673338Y13393117D01*
X17608088Y13394061D01*
X17566058Y13398879D01*
X17449015Y13429633D01*
X17342597Y13477581D01*
X17245133Y13543599D01*
X17182986Y13599391D01*
X17141107Y13642755D01*
X17110041Y13680135D01*
X17084743Y13718516D01*
X17060171Y13764883D01*
X17053389Y13778877D01*
X17021621Y13850090D01*
X17000132Y13911980D01*
X16987205Y13971832D01*
X16981128Y14036930D01*
X16980030Y14090565D01*
X17435786Y14090565D01*
X17443548Y14034169D01*
X17464407Y13977076D01*
X17494722Y13928805D01*
X17499984Y13922778D01*
X17546664Y13886110D01*
X17604439Y13862272D01*
X17667632Y13852337D01*
X17730568Y13857373D01*
X17773320Y13871224D01*
X17823393Y13899071D01*
X17859599Y13933254D01*
X17888555Y13980273D01*
X17892357Y13988146D01*
X17911935Y14052369D01*
X17913445Y14119437D01*
X17897610Y14184500D01*
X17865152Y14242708D01*
X17852059Y14258352D01*
X17814683Y14287910D01*
X17765245Y14312076D01*
X17712076Y14327410D01*
X17676021Y14331051D01*
X17625342Y14324244D01*
X17572373Y14306119D01*
X17525443Y14280115D01*
X17499984Y14258352D01*
X17468539Y14212278D01*
X17445991Y14155922D01*
X17435981Y14098800D01*
X17435786Y14090565D01*
X16980030Y14090565D01*
X16983119Y14172464D01*
X16993581Y14243126D01*
G37*
G36*
X30987399Y14247181D02*
G01*
X31002608Y14306872D01*
X31026873Y14370693D01*
X31050648Y14422737D01*
X31075788Y14472144D01*
X31100459Y14511997D01*
X31129643Y14549204D01*
X31168322Y14590673D01*
X31180936Y14603394D01*
X31224721Y14645462D01*
X31262392Y14676701D01*
X31300859Y14702092D01*
X31347029Y14726619D01*
X31361592Y14733682D01*
X31432805Y14765449D01*
X31494695Y14786939D01*
X31554547Y14799865D01*
X31619645Y14805943D01*
X31673280Y14807041D01*
X31749913Y14804467D01*
X31815936Y14795542D01*
X31879390Y14778464D01*
X31948319Y14751428D01*
X31975035Y14739367D01*
X32061709Y14699248D01*
X32802071Y15439557D01*
X33542433Y16179867D01*
X33542433Y20614628D01*
X35091751Y22164046D01*
X35064931Y22199209D01*
X35041145Y22236295D01*
X35015079Y22286315D01*
X34989823Y22342436D01*
X34968467Y22397824D01*
X34954771Y22442864D01*
X34948602Y22478731D01*
X34943847Y22526905D01*
X34941218Y22579220D01*
X34940918Y22601614D01*
X35396674Y22601614D01*
X35404436Y22545217D01*
X35425295Y22488125D01*
X35455610Y22439853D01*
X35460872Y22433827D01*
X35507551Y22397158D01*
X35565326Y22373321D01*
X35628520Y22363385D01*
X35691456Y22368421D01*
X35734208Y22382273D01*
X35784281Y22410119D01*
X35820487Y22444303D01*
X35849443Y22491321D01*
X35853245Y22499194D01*
X35872823Y22563418D01*
X35874333Y22630486D01*
X35858497Y22695548D01*
X35826040Y22753757D01*
X35812947Y22769401D01*
X35775571Y22798959D01*
X35726133Y22823125D01*
X35672964Y22838459D01*
X35636909Y22842099D01*
X35586230Y22835293D01*
X35533261Y22817168D01*
X35486330Y22791163D01*
X35460872Y22769401D01*
X35429427Y22723326D01*
X35406879Y22666970D01*
X35396869Y22609848D01*
X35396674Y22601614D01*
X34940918Y22601614D01*
X34942376Y22653152D01*
X34946277Y22704170D01*
X34951907Y22746502D01*
X34954771Y22760364D01*
X34969693Y22808893D01*
X34991400Y22864539D01*
X35016804Y22920469D01*
X35042815Y22969847D01*
X35064931Y23004018D01*
X35091751Y23039181D01*
X33542433Y24588599D01*
X33542433Y29033496D01*
X32804761Y29771222D01*
X32067088Y30508947D01*
X31980611Y30466608D01*
X31898720Y30431390D01*
X31820545Y30409190D01*
X31737859Y30398151D01*
X31668159Y30396079D01*
X31595602Y30398712D01*
X31532731Y30407194D01*
X31472295Y30423260D01*
X31407041Y30448650D01*
X31361592Y30469545D01*
X31312185Y30494686D01*
X31272333Y30519357D01*
X31235126Y30548541D01*
X31193656Y30587220D01*
X31180936Y30599834D01*
X31138867Y30643618D01*
X31107628Y30681290D01*
X31082237Y30719757D01*
X31057711Y30765927D01*
X31050648Y30780490D01*
X31018880Y30851703D01*
X30997391Y30913593D01*
X30984464Y30973445D01*
X30978387Y31038543D01*
X30977289Y31092178D01*
X31433045Y31092178D01*
X31440807Y31035781D01*
X31461666Y30978689D01*
X31491981Y30930418D01*
X31497243Y30924391D01*
X31543922Y30887723D01*
X31601697Y30863885D01*
X31664891Y30853949D01*
X31727827Y30858986D01*
X31770579Y30872837D01*
X31820652Y30900684D01*
X31856858Y30934867D01*
X31885813Y30981886D01*
X31889616Y30989759D01*
X31909194Y31053982D01*
X31910704Y31121050D01*
X31894868Y31186113D01*
X31862411Y31244321D01*
X31849318Y31259965D01*
X31811942Y31289523D01*
X31762504Y31313689D01*
X31709335Y31329023D01*
X31673280Y31332663D01*
X31622601Y31325857D01*
X31569632Y31307732D01*
X31522701Y31281728D01*
X31497243Y31259965D01*
X31465798Y31213891D01*
X31443250Y31157535D01*
X31433240Y31100413D01*
X31433045Y31092178D01*
X30977289Y31092178D01*
X30979531Y31165463D01*
X30987399Y31228310D01*
X31002608Y31288001D01*
X31026873Y31351822D01*
X31050648Y31403866D01*
X31075788Y31453273D01*
X31100459Y31493126D01*
X31129643Y31530333D01*
X31168322Y31571802D01*
X31180936Y31584523D01*
X31224721Y31626591D01*
X31262392Y31657830D01*
X31300859Y31683222D01*
X31347029Y31707748D01*
X31361592Y31714811D01*
X31432805Y31746578D01*
X31494695Y31768068D01*
X31554547Y31780994D01*
X31619645Y31787072D01*
X31673280Y31788170D01*
X31746565Y31785928D01*
X31809412Y31778059D01*
X31869103Y31762850D01*
X31932924Y31738586D01*
X31984968Y31714811D01*
X32034375Y31689670D01*
X32074228Y31664999D01*
X32111435Y31635815D01*
X32152905Y31597136D01*
X32165625Y31584523D01*
X32207693Y31540738D01*
X32238932Y31503066D01*
X32264324Y31464600D01*
X32288850Y31418430D01*
X32295913Y31403866D01*
X32327680Y31332653D01*
X32349170Y31270763D01*
X32362096Y31210911D01*
X32368174Y31145813D01*
X32369272Y31092178D01*
X32366061Y31009533D01*
X32355224Y30937790D01*
X32334949Y30868208D01*
X32310245Y30807160D01*
X32279213Y30737222D01*
X33069573Y29946813D01*
X33859933Y29156403D01*
X33859933Y24711505D01*
X34598872Y23972514D01*
X35337810Y23233523D01*
X35379819Y23251438D01*
X35457765Y23277954D01*
X35542563Y23292998D01*
X35636909Y23297605D01*
X35710194Y23295363D01*
X35773041Y23287495D01*
X35832732Y23272286D01*
X35896553Y23248021D01*
X35948597Y23224246D01*
X35998004Y23199106D01*
X36037857Y23174435D01*
X36075064Y23145251D01*
X36116534Y23106572D01*
X36129254Y23093958D01*
X36171322Y23050173D01*
X36202561Y23012502D01*
X36227953Y22974035D01*
X36252479Y22927865D01*
X36259542Y22913301D01*
X36291309Y22842089D01*
X36312799Y22780198D01*
X36325725Y22720347D01*
X36331803Y22655249D01*
X36332901Y22601614D01*
X36330659Y22528328D01*
X36322791Y22465482D01*
X36307581Y22405790D01*
X36283317Y22341969D01*
X36259542Y22289926D01*
X36234401Y22240519D01*
X36209730Y22200666D01*
X36180546Y22163459D01*
X36141868Y22121989D01*
X36129254Y22109269D01*
X36085469Y22067200D01*
X36047797Y22035962D01*
X36009331Y22010570D01*
X35963161Y21986044D01*
X35948597Y21978981D01*
X35877384Y21947214D01*
X35815494Y21925724D01*
X35755642Y21912798D01*
X35690545Y21906720D01*
X35636909Y21905622D01*
X35539957Y21910513D01*
X35455438Y21925875D01*
X35379819Y21951789D01*
X35337810Y21969704D01*
X34598872Y21230713D01*
X33859933Y20491722D01*
X33859933Y16056967D01*
X33067441Y15264524D01*
X32274948Y14472081D01*
X32308257Y14399105D01*
X32337951Y14326235D01*
X32356819Y14258426D01*
X32366656Y14187205D01*
X32369272Y14111049D01*
X32367030Y14037764D01*
X32359162Y13974918D01*
X32343952Y13915226D01*
X32319688Y13851405D01*
X32295913Y13799361D01*
X32238977Y13703494D01*
X32165782Y13617507D01*
X32079085Y13543669D01*
X31981646Y13484248D01*
X31876221Y13441513D01*
X31852514Y13434652D01*
X31817158Y13427472D01*
X31770829Y13421219D01*
X31719514Y13416338D01*
X31669201Y13413277D01*
X31625875Y13412482D01*
X31595524Y13414398D01*
X31591345Y13415190D01*
X31569931Y13419775D01*
X31537205Y13426410D01*
X31514530Y13430874D01*
X31480384Y13440277D01*
X31435347Y13456450D01*
X31386679Y13476670D01*
X31361592Y13488241D01*
X31311998Y13513586D01*
X31271925Y13538510D01*
X31234434Y13568026D01*
X31192585Y13607145D01*
X31180936Y13618705D01*
X31138867Y13662489D01*
X31107628Y13700161D01*
X31082237Y13738628D01*
X31057711Y13784798D01*
X31050648Y13799361D01*
X31018880Y13870574D01*
X30997391Y13932464D01*
X30984464Y13992316D01*
X30978387Y14057414D01*
X30977289Y14111049D01*
X31433045Y14111049D01*
X31440807Y14054652D01*
X31461666Y13997560D01*
X31491981Y13949289D01*
X31497243Y13943262D01*
X31543922Y13906594D01*
X31601697Y13882756D01*
X31664891Y13872820D01*
X31727827Y13877857D01*
X31770579Y13891708D01*
X31820652Y13919555D01*
X31856858Y13953738D01*
X31885813Y14000757D01*
X31889616Y14008630D01*
X31909194Y14072853D01*
X31910704Y14139921D01*
X31894868Y14204984D01*
X31862411Y14263192D01*
X31849318Y14278836D01*
X31811942Y14308394D01*
X31762504Y14332560D01*
X31709335Y14347894D01*
X31673280Y14351534D01*
X31622601Y14344728D01*
X31569632Y14326603D01*
X31522701Y14300599D01*
X31497243Y14278836D01*
X31465798Y14232762D01*
X31443250Y14176406D01*
X31433240Y14119284D01*
X31433045Y14111049D01*
X30977289Y14111049D01*
X30979531Y14184334D01*
X30987399Y14247181D01*
G37*
%TD*%
D12*
%TO.C,D71*%
X40614500Y13681500D03*
X40614500Y11631500D03*
%TD*%
D13*
%TO.C,D39*%
X104389500Y29429500D03*
X102339500Y29429500D03*
%TD*%
D14*
%TO.C,D9*%
X41630500Y42644500D03*
X41630500Y44694500D03*
%TD*%
D13*
%TO.C,D53*%
X104389500Y11649500D03*
X102339500Y11649500D03*
%TD*%
D15*
%TO.C,RN16*%
X107059500Y27619500D03*
X107059500Y26279500D03*
X107059500Y24959500D03*
X107059500Y23619500D03*
X110059500Y23619500D03*
X110059500Y24959500D03*
X110059500Y26279500D03*
X110059500Y27619500D03*
%TD*%
D13*
%TO.C,D37*%
X104389500Y31969500D03*
X102339500Y31969500D03*
%TD*%
D14*
%TO.C,D10*%
X39070500Y42644500D03*
X39070500Y44694500D03*
%TD*%
D15*
%TO.C,RN6*%
X64204500Y39819500D03*
X62864500Y39819500D03*
X61544500Y39819500D03*
X60204500Y39819500D03*
X60204500Y36819500D03*
X61544500Y36819500D03*
X62864500Y36819500D03*
X64204500Y36819500D03*
%TD*%
D14*
%TO.C,D16*%
X76174500Y42644500D03*
X76174500Y44694500D03*
%TD*%
D16*
%TO.C,D36*%
X117389500Y31899500D03*
X119439500Y31899500D03*
%TD*%
D12*
%TO.C,D54*%
X53340000Y13725000D03*
X53340000Y11675000D03*
%TD*%
D14*
%TO.C,D15*%
X73634500Y42644500D03*
X73634500Y44694500D03*
%TD*%
%TO.C,D1*%
X63474500Y42619500D03*
X63474500Y44669500D03*
%TD*%
D13*
%TO.C,D35*%
X104389500Y34509500D03*
X102339500Y34509500D03*
%TD*%
D15*
%TO.C,RN14*%
X107059500Y37779500D03*
X107059500Y36439500D03*
X107059500Y35119500D03*
X107059500Y33779500D03*
X110059500Y33779500D03*
X110059500Y35119500D03*
X110059500Y36439500D03*
X110059500Y37779500D03*
%TD*%
D16*
%TO.C,D44*%
X117389500Y21739500D03*
X119439500Y21739500D03*
%TD*%
D13*
%TO.C,D49*%
X104389500Y16729500D03*
X102339500Y16729500D03*
%TD*%
D12*
%TO.C,D60*%
X68580000Y13725000D03*
X68580000Y11675000D03*
%TD*%
D14*
%TO.C,D0*%
X66014500Y42619500D03*
X66014500Y44669500D03*
%TD*%
D15*
%TO.C,RN11*%
X111758500Y47939500D03*
X111758500Y46599500D03*
X111758500Y45279500D03*
X111758500Y43939500D03*
X114758500Y43939500D03*
X114758500Y45279500D03*
X114758500Y46599500D03*
X114758500Y47939500D03*
%TD*%
D16*
%TO.C,D38*%
X117389500Y29359500D03*
X119439500Y29359500D03*
%TD*%
%TO.C,D42*%
X117389500Y24279500D03*
X119439500Y24279500D03*
%TD*%
%TO.C,D52*%
X117389500Y11579500D03*
X119439500Y11579500D03*
%TD*%
D15*
%TO.C,RN4*%
X54044500Y39819500D03*
X52704500Y39819500D03*
X51384500Y39819500D03*
X50044500Y39819500D03*
X50044500Y36819500D03*
X51384500Y36819500D03*
X52704500Y36819500D03*
X54044500Y36819500D03*
%TD*%
%TO.C,RN3*%
X55143300Y16272300D03*
X56483300Y16272300D03*
X57803300Y16272300D03*
X59143300Y16272300D03*
X59143300Y19272300D03*
X57803300Y19272300D03*
X56483300Y19272300D03*
X55143300Y19272300D03*
%TD*%
%TO.C,RN18*%
X107059500Y17459500D03*
X107059500Y16119500D03*
X107059500Y14799500D03*
X107059500Y13459500D03*
X110059500Y13459500D03*
X110059500Y14799500D03*
X110059500Y16119500D03*
X110059500Y17459500D03*
%TD*%
D14*
%TO.C,D7*%
X48234500Y42644500D03*
X48234500Y44694500D03*
%TD*%
D13*
%TO.C,D23*%
X104389500Y49749500D03*
X102339500Y49749500D03*
%TD*%
D14*
%TO.C,D5*%
X53314500Y42619500D03*
X53314500Y44669500D03*
%TD*%
D12*
%TO.C,D58*%
X63500000Y13725000D03*
X63500000Y11675000D03*
%TD*%
D15*
%TO.C,RN13*%
X111758500Y37779500D03*
X111758500Y36439500D03*
X111758500Y35119500D03*
X111758500Y33779500D03*
X114758500Y33779500D03*
X114758500Y35119500D03*
X114758500Y36439500D03*
X114758500Y37779500D03*
%TD*%
D12*
%TO.C,D57*%
X60960000Y13725000D03*
X60960000Y11675000D03*
%TD*%
%TO.C,D62*%
X76200000Y13725000D03*
X76200000Y11675000D03*
%TD*%
D13*
%TO.C,D33*%
X104389500Y37049500D03*
X102339500Y37049500D03*
%TD*%
D12*
%TO.C,D69*%
X93980000Y13725000D03*
X93980000Y11675000D03*
%TD*%
D16*
%TO.C,D34*%
X117389500Y34439500D03*
X119439500Y34439500D03*
%TD*%
D13*
%TO.C,D43*%
X104389500Y24349500D03*
X102339500Y24349500D03*
%TD*%
D14*
%TO.C,D8*%
X44170500Y42644500D03*
X44170500Y44694500D03*
%TD*%
D13*
%TO.C,D45*%
X104389500Y21809500D03*
X102339500Y21809500D03*
%TD*%
D15*
%TO.C,RN17*%
X111758500Y17459500D03*
X111758500Y16119500D03*
X111758500Y14799500D03*
X111758500Y13459500D03*
X114758500Y13459500D03*
X114758500Y14799500D03*
X114758500Y16119500D03*
X114758500Y17459500D03*
%TD*%
D16*
%TO.C,D48*%
X117389500Y16659500D03*
X119439500Y16659500D03*
%TD*%
%TO.C,D50*%
X117389500Y14119500D03*
X119439500Y14119500D03*
%TD*%
D14*
%TO.C,D21*%
X88874500Y42644500D03*
X88874500Y44694500D03*
%TD*%
%TO.C,D2*%
X60934500Y42619500D03*
X60934500Y44669500D03*
%TD*%
%TO.C,D19*%
X83794500Y42619500D03*
X83794500Y44669500D03*
%TD*%
D13*
%TO.C,D31*%
X104389500Y39589500D03*
X102339500Y39589500D03*
%TD*%
D12*
%TO.C,D66*%
X86360000Y13725000D03*
X86360000Y11675000D03*
%TD*%
D15*
%TO.C,RN15*%
X111758500Y27619500D03*
X111758500Y26279500D03*
X111758500Y24959500D03*
X111758500Y23619500D03*
X114758500Y23619500D03*
X114758500Y24959500D03*
X114758500Y26279500D03*
X114758500Y27619500D03*
%TD*%
D16*
%TO.C,D28*%
X117389500Y42059500D03*
X119439500Y42059500D03*
%TD*%
%TO.C,D22*%
X117389500Y49679500D03*
X119439500Y49679500D03*
%TD*%
D15*
%TO.C,RN8*%
X76904500Y39819500D03*
X75564500Y39819500D03*
X74244500Y39819500D03*
X72904500Y39819500D03*
X72904500Y36819500D03*
X74244500Y36819500D03*
X75564500Y36819500D03*
X76904500Y36819500D03*
%TD*%
%TO.C,RN5*%
X65309900Y16270900D03*
X66649900Y16270900D03*
X67969900Y16270900D03*
X69309900Y16270900D03*
X69309900Y19270900D03*
X67969900Y19270900D03*
X66649900Y19270900D03*
X65309900Y19270900D03*
%TD*%
D17*
%TO.C,RESET1*%
X55124500Y32452500D03*
X55124500Y26152500D03*
X59124500Y26152500D03*
X59124500Y32452500D03*
%TD*%
D15*
%TO.C,RN9*%
X88169900Y16270900D03*
X89509900Y16270900D03*
X90829900Y16270900D03*
X92169900Y16270900D03*
X92169900Y19270900D03*
X90829900Y19270900D03*
X89509900Y19270900D03*
X88169900Y19270900D03*
%TD*%
D12*
%TO.C,D59*%
X66040000Y13725000D03*
X66040000Y11675000D03*
%TD*%
D13*
%TO.C,D27*%
X104389500Y44669500D03*
X102339500Y44669500D03*
%TD*%
D14*
%TO.C,D3*%
X58394500Y42644500D03*
X58394500Y44694500D03*
%TD*%
D16*
%TO.C,D40*%
X117389500Y26819500D03*
X119439500Y26819500D03*
%TD*%
D14*
%TO.C,D17*%
X78714500Y42619500D03*
X78714500Y44669500D03*
%TD*%
D12*
%TO.C,D65*%
X83820000Y13725000D03*
X83820000Y11675000D03*
%TD*%
D14*
%TO.C,D20*%
X86334500Y42644500D03*
X86334500Y44694500D03*
%TD*%
D12*
%TO.C,D64*%
X81280000Y13725000D03*
X81280000Y11675000D03*
%TD*%
D16*
%TO.C,D32*%
X117389500Y36979500D03*
X119439500Y36979500D03*
%TD*%
D13*
%TO.C,D41*%
X104389500Y26889500D03*
X102339500Y26889500D03*
%TD*%
D12*
%TO.C,D56*%
X58420000Y13725000D03*
X58420000Y11675000D03*
%TD*%
D15*
%TO.C,RN12*%
X107059500Y47939500D03*
X107059500Y46599500D03*
X107059500Y45279500D03*
X107059500Y43939500D03*
X110059500Y43939500D03*
X110059500Y45279500D03*
X110059500Y46599500D03*
X110059500Y47939500D03*
%TD*%
%TO.C,RN7*%
X78009900Y16270900D03*
X79349900Y16270900D03*
X80669900Y16270900D03*
X82009900Y16270900D03*
X82009900Y19270900D03*
X80669900Y19270900D03*
X79349900Y19270900D03*
X78009900Y19270900D03*
%TD*%
%TO.C,RN1*%
X36061300Y39718698D03*
X34721300Y39718698D03*
X33401300Y39718698D03*
X32061300Y39718698D03*
X32061300Y36718698D03*
X33401300Y36718698D03*
X34721300Y36718698D03*
X36061300Y36718698D03*
%TD*%
D14*
%TO.C,D4*%
X55854500Y42644500D03*
X55854500Y44694500D03*
%TD*%
D12*
%TO.C,D70*%
X38074500Y13681500D03*
X38074500Y11631500D03*
%TD*%
%TO.C,D68*%
X91440000Y13725000D03*
X91440000Y11675000D03*
%TD*%
D13*
%TO.C,D47*%
X104389500Y19269500D03*
X102339500Y19269500D03*
%TD*%
D14*
%TO.C,D12*%
X33990500Y42619500D03*
X33990500Y44669500D03*
%TD*%
D12*
%TO.C,D67*%
X88900000Y13725000D03*
X88900000Y11675000D03*
%TD*%
%TO.C,D61*%
X71120000Y13725000D03*
X71120000Y11675000D03*
%TD*%
D15*
%TO.C,RN10*%
X87064500Y39819500D03*
X85724500Y39819500D03*
X84404500Y39819500D03*
X83064500Y39819500D03*
X83064500Y36819500D03*
X84404500Y36819500D03*
X85724500Y36819500D03*
X87064500Y36819500D03*
%TD*%
D16*
%TO.C,D24*%
X117389500Y47139500D03*
X119439500Y47139500D03*
%TD*%
%TO.C,D46*%
X117389500Y19199500D03*
X119439500Y19199500D03*
%TD*%
D15*
%TO.C,RN2*%
X42309700Y39692500D03*
X40969700Y39692500D03*
X39649700Y39692500D03*
X38309700Y39692500D03*
X38309700Y36692500D03*
X39649700Y36692500D03*
X40969700Y36692500D03*
X42309700Y36692500D03*
%TD*%
D14*
%TO.C,D18*%
X81254500Y42619500D03*
X81254500Y44669500D03*
%TD*%
D12*
%TO.C,D63*%
X78740000Y13725000D03*
X78740000Y11675000D03*
%TD*%
D14*
%TO.C,D13*%
X31450500Y42644500D03*
X31450500Y44694500D03*
%TD*%
%TO.C,D6*%
X50774500Y42619500D03*
X50774500Y44669500D03*
%TD*%
D16*
%TO.C,D26*%
X117389500Y44599500D03*
X119439500Y44599500D03*
%TD*%
D14*
%TO.C,D11*%
X36530500Y42644500D03*
X36530500Y44694500D03*
%TD*%
D13*
%TO.C,D25*%
X104389500Y47209500D03*
X102339500Y47209500D03*
%TD*%
%TO.C,D29*%
X104389500Y42129500D03*
X102339500Y42129500D03*
%TD*%
%TO.C,D51*%
X104389500Y14189500D03*
X102339500Y14189500D03*
%TD*%
D16*
%TO.C,D30*%
X117389500Y39519500D03*
X119439500Y39519500D03*
%TD*%
D14*
%TO.C,D14*%
X71094500Y42644500D03*
X71094500Y44694500D03*
%TD*%
D12*
%TO.C,D55*%
X55880000Y13725000D03*
X55880000Y11675000D03*
%TD*%
M02*
