M48
; DRILL file {KiCad (6.0.9)} date Thu Jan 12 16:27:34 2023
; FORMAT={-:-/ absolute / inch / decimal}
; #@! TF.CreationDate,2023-01-12T16:27:34+01:00
; #@! TF.GenerationSoftware,Kicad,Pcbnew,(6.0.9)
; #@! TF.FileFunction,Plated,1,2,PTH
FMAT,2
INCH
; #@! TA.AperFunction,Plated,PTH,ViaDrill
T1C0.0157
; #@! TA.AperFunction,Plated,PTH,ComponentDrill
T2C0.0197
; #@! TA.AperFunction,Plated,PTH,ComponentDrill
T3C0.0300
; #@! TA.AperFunction,Plated,PTH,ComponentDrill
T4C0.0315
; #@! TA.AperFunction,Plated,PTH,ComponentDrill
T5C0.0394
; #@! TA.AperFunction,Plated,PTH,ComponentDrill
T6C0.1259
%
G90
G05
T1
X4.754Y1.9556
X4.754Y1.8556
X4.754Y1.7556
X4.754Y1.6556
X4.754Y1.5556
X4.754Y1.4556
X4.754Y1.3556
X4.754Y1.2556
X4.754Y1.1556
X4.754Y1.0556
X4.754Y0.9556
X4.754Y0.8556
X4.754Y0.7556
X4.754Y0.6556
X4.754Y0.5556
X4.754Y0.4556
T2
X0.5401Y0.8889
X0.696Y1.2228
X0.696Y0.5547
X1.2471Y1.224
X1.2471Y0.5555
X1.4031Y0.8897
T3
X0.838Y2.0563
X0.938Y2.0563
X1.038Y2.0563
X1.138Y2.0563
X1.198Y0.1563
X1.238Y2.0563
X1.298Y0.1563
X1.338Y2.0563
X1.398Y0.1563
X1.438Y2.0563
X1.498Y0.1563
X1.538Y2.0563
X1.598Y0.1563
X1.638Y2.0563
X1.698Y0.1563
X1.738Y2.0563
X1.798Y0.1563
X1.898Y2.0563
X1.898Y0.1563
X1.998Y2.0563
X2.098Y2.0563
X2.098Y0.1563
X2.198Y2.0563
X2.198Y0.1563
X2.298Y2.0563
X2.298Y0.1563
X2.398Y2.0563
X2.398Y0.1563
X2.498Y2.0563
X2.498Y0.1563
X2.598Y2.0563
X2.598Y0.1563
X2.698Y0.1563
X2.798Y2.0563
X2.798Y0.1563
X2.898Y2.0563
X2.998Y2.0563
X2.998Y0.1563
X3.098Y2.0563
X3.098Y0.1563
X3.198Y2.0563
X3.198Y0.1563
X3.298Y2.0563
X3.298Y0.1563
X3.398Y2.0563
X3.398Y0.1563
X3.498Y2.0563
X3.498Y0.1563
X3.598Y0.1563
X3.698Y0.1563
X3.798Y2.0563
X3.798Y1.9563
X3.798Y1.8563
X3.798Y1.7563
X3.798Y1.6563
X3.798Y1.5563
X3.798Y1.4563
X3.798Y1.3563
X3.798Y1.2563
X3.798Y1.1563
X3.798Y1.0563
X3.798Y0.9563
X3.798Y0.8563
X3.798Y0.7563
X3.798Y0.6563
X3.798Y0.5563
X3.798Y0.4563
X3.798Y0.3563
X3.898Y2.0563
X3.898Y1.9563
X3.898Y1.8563
X3.898Y1.7563
X3.898Y1.6563
X3.898Y1.5563
X3.898Y1.4563
X3.898Y1.3563
X3.898Y1.2563
X3.898Y1.1563
X3.898Y1.0563
X3.898Y0.9563
X3.898Y0.8563
X3.898Y0.7563
X3.898Y0.6563
X3.898Y0.5563
X3.898Y0.4563
X3.898Y0.3563
T4
X0.7365Y0.7586
X0.7428Y1.0145
X1.2117Y0.7555
X1.2141Y1.0145
T5
X2.6023Y1.2554
X2.6023Y1.1554
X2.6023Y1.0554
X2.7023Y1.2554
X2.7023Y1.1554
X2.7023Y1.0554
T6
X0.648Y0.1563
X0.698Y2.0563
X2.698Y1.4563
X3.648Y2.0563
X3.898Y0.1563
T0
M30
